<?xml version="1.0" encoding="UTF-8" standalone="no"?>
<!DOCTYPE svg PUBLIC "-//W3C//DTD SVG 1.1//EN" "http://www.w3.org/Graphics/SVG/1.1/DTD/svg11.dtd">
<svg width="100%" height="100%" viewBox="0 0 411 206" version="1.1" xmlns="http://www.w3.org/2000/svg" xmlns:xlink="http://www.w3.org/1999/xlink" xml:space="preserve" xmlns:serif="http://www.serif.com/" style="fill-rule:evenodd;clip-rule:evenodd;stroke-linejoin:round;stroke-miterlimit:2;">
    <g transform="matrix(1,0,0,1,90.0932,9.47787)">
        <path id="Layer_2" d="M121.667,131.457L124.181,129.698L112.749,102.434C112.749,102.434 78.449,105.636 54.327,112.484C30.204,119.332 12.108,115.247 12.108,115.247L3.062,124.293C3.062,124.293 1.93,132.017 8.34,132.334C14.749,132.65 121.667,131.457 121.667,131.457Z" style="fill:rgb(170,137,118);fill-rule:nonzero;"/>
        <path id="Layer_21" serif:id="Layer_2" d="M175.317,130.891L190.145,109.909C190.145,109.909 213.391,109.343 214.018,109.909C214.645,110.475 226.831,123.982 226.831,123.982C226.831,123.982 229.595,130.264 218.285,131.646C206.976,133.027 175.317,130.891 175.317,130.891Z" style="fill:rgb(170,137,118);fill-rule:nonzero;"/>
        <path id="Layer_22" serif:id="Layer_2" d="M36.608,115.125L36.608,96.907L28.944,98.039C28.944,98.039 22.979,99.798 22.035,102.312C21.092,104.826 14.56,110.037 14.871,111.108C15.188,112.173 19.521,116.635 19.521,116.635C19.521,116.635 25.426,117.14 28.067,117.14C30.709,117.14 36.863,116.263 36.863,116.263L36.608,115.125Z" style="fill:rgb(211,181,161);fill-rule:nonzero;"/>
        <path id="Layer_23" serif:id="Layer_2" d="M53.694,111.352L53.694,95.769C53.694,95.769 114.192,70.01 142.776,89.238L138.881,106.951C138.881,106.951 112.871,99.476 95.913,103.056C78.949,106.635 59.981,111.346 59.981,111.346L53.694,111.346L53.694,111.352Z" style="fill:rgb(211,181,161);fill-rule:nonzero;"/>
        <path id="Layer_24" serif:id="Layer_2" d="M168.531,112.045L165.64,92.318L191.399,85.531L213.008,108.522C213.008,108.522 206.976,109.903 196.172,109.903C185.367,109.903 175.945,110.153 175.945,110.153L168.531,112.045Z" style="fill:rgb(211,181,161);fill-rule:nonzero;"/>
        <path id="Layer_25" serif:id="Layer_2" d="M126.317,129.947C126.317,129.947 117.838,120.713 115.513,103.439C115.513,103.439 130.59,101.868 139.136,108.339C139.136,108.339 143.22,83.711 153.964,79.438C153.964,79.438 166.466,89.993 167.41,109.97L170.046,111.602C170.046,111.602 184.807,108.083 186.632,111.224C188.453,114.365 175.323,130.885 175.323,130.885L126.317,129.947Z" style="fill:rgb(112,175,133);fill-rule:nonzero;"/>
        <path id="Layer_26" serif:id="Layer_2" d="M94.442,70.603C93.099,70.603 57.418,70.098 57.418,70.098C57.418,70.098 56.413,65.493 57.584,64.738C58.755,63.983 73.166,47.147 73.166,47.147L84.725,51.503L97.877,61.303L109.941,54.266C109.941,54.266 124.098,57.951 125.269,58.201C126.439,58.451 131.8,62.723 132.305,62.052C132.81,61.381 155.673,45.804 155.928,46.303C156.178,46.808 174.524,69.588 174.524,69.588C174.524,69.588 148.054,71.514 147.049,71.43C146.045,71.347 136.661,71.097 136.661,71.097L94.442,70.603Z" style="fill:rgb(248,153,52);fill-rule:nonzero;"/>
        <path id="Layer_27" serif:id="Layer_2" d="M37.651,114.831L35.975,66.081L15.704,65.914C15.704,65.914 5.399,62.901 4.649,56.031C3.895,49.161 6.159,32.58 6.159,32.58L15.371,31.575L18.722,35.26L19.56,49.333L36.314,49L37.318,6.115L45.192,2.764L52.062,5.444L53.905,16.332L66.135,17.674L66.64,8.629L71.496,6.62L75.852,9.301L75.009,23.529C75.009,23.529 72.079,27.719 65.625,28.385C59.171,29.05 53.899,28.218 53.899,28.218L53.688,111.352L37.651,114.831Z" style="fill:rgb(112,175,133);fill-rule:nonzero;"/>
        <path id="Layer_28" serif:id="Layer_2" d="M97.877,61.308L75.092,44.389L95.53,22.946L136.572,24.789C136.572,24.789 155.002,44.222 154.33,44.555C153.659,44.888 131.378,60.803 131.378,60.803L118.815,54.438L108.26,55.11L97.877,61.308Z" style="fill:rgb(245,139,51);fill-rule:nonzero;"/>
        <path id="Layer_29" serif:id="Layer_2" d="M109.941,54.272L96.201,21.437L115.136,2.003L131.717,21.098L121.334,54.438L109.941,54.272Z" style="fill:rgb(244,118,55);fill-rule:nonzero;"/>
        <path id="Layer_210" serif:id="Layer_2" d="M96.285,81.746C95.78,81.83 56.247,94.648 56.247,94.648L54.071,85.437L56.247,70.026L93.271,71.031L95.785,77.562L96.285,81.746Z" style="fill:rgb(254,196,89);fill-rule:nonzero;"/>
        <path id="Layer_211" serif:id="Layer_2" d="M132.305,83.755C132.893,83.589 135.74,70.187 136.661,71.108C137.582,72.03 177.204,70.354 178.209,70.692C179.213,71.025 189.934,85.098 189.934,85.098C189.934,85.098 179.213,89.121 177.87,89.621C176.527,90.126 165.473,90.625 165.473,90.625L160.784,85.431L153.958,79.443L145.207,89.116L132.305,83.755Z" style="fill:rgb(254,196,89);fill-rule:nonzero;"/>
        <path id="Layer_212" serif:id="Layer_2" d="M96.285,81.746L95.613,68.844L106.334,55.776L118.815,54.433L132.299,62.058C132.299,62.058 134.475,72.363 134.475,72.862C134.475,73.367 132.299,83.75 132.299,83.75L115.552,80.57L96.285,81.746Z" style="fill:rgb(252,225,151);fill-rule:nonzero;"/>
        <path id="Layer_4" d="M227.625,119.631L121.678,2.974C119.975,1.088 117.538,0.011 114.997,0.011C112.455,0.011 110.019,1.088 108.315,2.969L57.451,58.983C57.085,59.383 56.419,59.128 56.419,58.584L56.419,32.957C56.419,31.953 57.234,31.137 58.239,31.137L68.277,31.137C73.954,31.137 78.56,26.531 78.56,20.854L78.56,11.476C78.56,7.331 75.386,3.762 71.246,3.557C66.824,3.341 63.161,6.876 63.161,11.248L63.161,15.116L58.239,15.116C57.234,15.116 56.419,14.3 56.419,13.296L56.419,10.588C56.419,4.739 51.68,0 45.831,0L44.155,0C38.328,0 33.561,4.767 33.561,10.594L33.561,44.561C33.561,45.565 32.745,46.381 31.741,46.381L22.579,46.381L22.579,38.468C22.579,32.73 18.123,27.841 12.391,27.63C6.364,27.408 1.398,32.241 1.398,38.218L1.398,53.795C1.398,61.947 8.029,68.572 16.175,68.572L31.741,68.572C32.745,68.572 33.561,69.388 33.561,70.393L33.561,81.813C33.561,84.055 32.729,86.214 31.219,87.867L26.691,92.856L2.369,119.637C-0.067,122.323 -0.672,126.046 0.793,129.359C2.258,132.678 5.421,134.736 9.05,134.736L220.944,134.736C224.573,134.736 227.736,132.678 229.201,129.359C230.666,126.041 230.061,122.323 227.625,119.631ZM56.419,21.22L65.669,21.22C67.65,21.22 69.265,19.611 69.265,17.625L69.265,11.248C69.265,10.366 69.981,9.65 70.858,9.65C71.74,9.65 72.456,10.366 72.456,11.248L72.456,20.854C72.456,23.157 70.58,25.033 68.277,25.033L56.419,25.033L56.419,21.22ZM192.259,89.776L206.305,105.242C207.015,106.024 206.46,107.301 205.406,107.284L205.378,107.284C203.957,107.268 202.048,107.079 199.845,106.857C193.031,106.18 183.025,105.17 172.482,107.922C171.638,108.144 170.806,107.534 170.767,106.663C170.639,103.644 170.051,100.126 168.669,96.191C168.348,95.276 168.947,94.299 169.912,94.188C176.76,93.433 183.131,91.724 188.924,89.094C190.067,88.572 191.416,88.849 192.259,89.776ZM178.597,74.727L185.55,82.385C186.044,82.923 185.844,83.777 185.173,84.06C179.513,86.452 173.242,87.901 166.472,88.367L166.461,88.367C165.656,88.417 164.89,88.017 164.48,87.329C162.715,84.355 160.49,81.23 157.71,77.962C156.91,77.018 156.056,76.058 155.151,75.093C154.891,74.81 154.741,74.438 154.741,74.055L154.741,73.889L175.684,73.472C176.794,73.456 177.853,73.911 178.597,74.727ZM156.444,50.337L169.53,64.749C170.484,65.803 169.757,67.49 168.336,67.518L137.943,68.123C137.366,68.134 136.833,67.768 136.667,67.213C136.323,66.086 135.89,64.993 135.385,63.944C135.107,63.373 135.291,62.685 135.807,62.313L153.076,49.977C154.13,49.228 155.579,49.383 156.444,50.337ZM152.543,73.933C152.543,74.316 152.393,74.693 152.133,74.971C151.189,75.981 150.296,76.974 149.458,77.962C147.693,80.037 145.118,83.494 144.008,84.937C143.853,85.137 143.637,85.276 143.387,85.326C143.32,85.337 143.254,85.342 143.193,85.342C143.032,85.342 142.871,85.309 142.727,85.237C140.962,84.382 139.197,83.611 137.438,82.928C136.633,82.612 136.234,81.719 136.506,80.897C137.083,79.155 137.449,77.318 137.588,75.42C137.638,74.743 138.193,74.222 138.87,74.21L152.543,73.933ZM137.527,29.506L150.79,44.111L132.155,57.424C131.65,57.785 130.957,57.746 130.501,57.318C129.07,55.97 127.46,54.805 125.718,53.861C125.146,53.551 124.891,52.862 125.119,52.252L133.254,30.327C133.914,28.54 136.239,28.09 137.527,29.506ZM130.801,78.717C130.479,79.738 129.419,80.342 128.376,80.093C118.992,77.845 109.797,77.712 101.04,78.755C99.992,78.883 99.015,78.173 98.798,77.141C98.576,76.064 98.454,74.954 98.454,73.811C98.454,64.344 106.445,56.708 116.04,57.296C124.142,57.79 130.79,64.272 131.489,72.357C131.672,74.582 131.417,76.73 130.801,78.717ZM101.529,19.522L112.833,7.07C113.393,6.454 114.164,6.115 114.997,6.115C115.829,6.115 116.601,6.454 117.161,7.075L128.465,19.522C129.458,20.616 129.763,22.175 129.247,23.568L119.259,50.498C119.048,51.07 118.471,51.425 117.86,51.347C116.922,51.225 115.968,51.164 114.997,51.164C114.026,51.164 113.071,51.231 112.133,51.347C111.529,51.425 110.951,51.076 110.735,50.498L100.746,23.568C100.23,22.18 100.53,20.621 101.529,19.522ZM92.467,29.5C93.749,28.085 96.079,28.534 96.745,30.327L104.88,52.252C105.108,52.862 104.853,53.551 104.281,53.861C102.539,54.805 100.929,55.97 99.498,57.318C99.043,57.746 98.349,57.785 97.844,57.424L79.21,44.111L92.467,29.5ZM59.876,65.393L73.544,50.337C74.415,49.383 75.858,49.228 76.912,49.977L94.181,62.313C94.698,62.685 94.886,63.373 94.603,63.944C94.093,64.993 93.665,66.081 93.321,67.213C93.149,67.768 92.622,68.134 92.045,68.123L60.775,67.485C59.704,67.457 59.154,66.186 59.876,65.393ZM56.419,75.725C56.419,74.505 57.423,73.517 58.644,73.545L91.124,74.205C91.801,74.216 92.361,74.749 92.406,75.426C92.478,76.436 92.617,77.429 92.816,78.4C92.999,79.283 92.45,80.148 91.568,80.337C81.446,82.479 72.079,85.825 63.894,88.755C62.145,89.382 60.475,89.976 58.883,90.531C57.678,90.953 56.419,90.059 56.419,88.783L56.419,75.725ZM56.419,99.698C56.419,98.566 57.14,97.567 58.211,97.207C60.68,96.385 63.272,95.453 65.947,94.493C85.414,87.54 111.85,78.084 138.237,89.876C139.575,90.475 140.163,92.051 139.586,93.394C138.015,97.062 137.138,100.409 136.711,103.389C136.628,103.949 136.04,104.265 135.524,104.038C112.267,94.005 82.173,101.38 58.633,107.956C57.517,108.266 56.419,107.428 56.419,106.274L56.419,99.698ZM39.665,100.225L39.665,10.588C39.665,8.113 41.674,6.104 44.149,6.104L45.831,6.104C48.306,6.104 50.314,8.113 50.314,10.588L50.314,108.866C50.314,109.715 49.748,110.464 48.927,110.691C46.474,111.374 44.171,112.007 42.018,112.556C40.82,112.861 39.66,111.951 39.66,110.719L39.66,100.225L39.665,100.225ZM16.175,62.463C11.392,62.463 7.502,58.573 7.502,53.789L7.502,38.212C7.502,35.737 9.516,33.723 11.991,33.723C14.466,33.723 16.475,35.737 16.475,38.212L16.475,48.556C16.475,50.72 18.24,52.485 20.409,52.485L33.561,52.485L33.561,62.463L16.175,62.463ZM18.928,110.492L26.952,101.646C28.622,99.809 31.125,98.916 33.561,99.354L33.561,111.59C33.561,113.205 32.307,114.548 30.698,114.659C27.002,114.909 23.423,114.648 19.965,113.866C18.445,113.51 17.879,111.64 18.928,110.492ZM117.072,128.632L9.05,128.632C7.28,128.632 6.553,127.3 6.375,126.89C6.192,126.485 5.698,125.047 6.886,123.743L10.01,120.303C11.331,118.849 13.367,118.305 15.232,118.899C22.246,121.135 29.749,121.457 37.595,119.859C42.545,118.849 48.417,117.19 55.214,115.27C70.741,110.88 89.992,105.436 107.91,105.236C110.063,105.214 111.978,106.607 112.561,108.671C114.303,114.837 116.528,120.258 119.22,124.892C120.185,126.551 118.992,128.632 117.072,128.632ZM146.683,124.626C146.439,124.92 146.195,125.214 145.956,125.508C144.358,127.5 141.916,128.627 139.364,128.627L134.769,128.627C131.068,128.627 127.616,126.751 125.607,123.638C122.716,119.154 120.341,113.694 118.515,107.295C118.304,106.557 118.92,105.852 119.68,105.963C125.102,106.746 130.274,108.205 135.035,110.531C135.546,110.78 136.056,111.041 136.556,111.313C138.093,112.145 139.575,113.067 140.979,114.071C141.828,114.681 142.66,115.32 143.465,115.997C144.502,116.868 145.501,117.789 146.461,118.771C148.032,120.38 148.12,122.905 146.683,124.626ZM152.427,116.219C150.035,113.522 147.388,111.141 144.525,109.104C144.463,109.06 144.408,109.021 144.347,108.977C143.148,108.128 142.477,106.713 142.632,105.248C142.993,101.896 144.064,97.817 146.45,93.145C147.36,91.369 148.464,89.499 149.796,87.551C150.684,86.247 151.672,84.909 152.776,83.533C153.187,83.017 153.986,83.017 154.402,83.533C155.756,85.22 156.944,86.857 157.982,88.433C159.408,90.609 160.556,92.678 161.466,94.632C163.941,99.931 164.696,104.399 164.724,107.839C164.735,109.515 163.797,111.047 162.315,111.823L162.293,111.835C159.785,113.139 157.382,114.687 155.09,116.463C154.275,117.095 153.109,116.99 152.427,116.219ZM168.348,128.632L156.184,128.632C154.269,128.632 153.298,126.307 154.663,124.959C157.865,121.784 161.367,119.21 165.118,117.251C165.262,117.173 165.412,117.095 165.562,117.023C166.949,116.313 168.403,115.68 169.896,115.131C170.434,114.931 170.978,114.742 171.522,114.565C175.145,113.377 178.73,112.739 182.171,112.428C182.992,112.356 183.569,113.222 183.197,113.96C181.189,117.917 179.013,121.435 176.683,124.481C174.69,127.078 171.622,128.632 168.348,128.632ZM223.618,126.89C223.441,127.3 222.714,128.632 220.944,128.632L183.553,128.632C182.581,128.632 182.027,127.539 182.593,126.751C185.14,123.216 187.498,119.182 189.646,114.676C190.35,113.194 191.888,112.301 193.519,112.417C195.556,112.562 197.476,112.75 199.235,112.928C201.588,113.166 203.613,113.372 205.311,113.388C207.154,113.394 209.002,113.211 210.844,112.811C212.07,112.55 213.341,112.989 214.185,113.916L223.108,123.743C224.295,125.042 223.801,126.485 223.618,126.89Z" style="fill:rgb(51,30,20);fill-rule:nonzero;"/>
    </g>
    <g transform="matrix(1,0,0,1,70,158.978)">
        <g>
            <path d="M13.36,36.934L7.38,36.934C7.22,36.934 7.14,36.848 7.14,36.674L7.14,6.444L0.26,6.444C0.087,6.444 -0,6.358 -0,6.184L0.05,0.264C0.05,0.124 0.12,0.054 0.26,0.054L20.39,0.054C20.583,0.054 20.68,0.124 20.68,0.264L20.68,6.184C20.68,6.358 20.61,6.444 20.47,6.444L13.51,6.444L13.56,36.674C13.56,36.848 13.493,36.934 13.36,36.934ZM36.18,37.444C34.313,37.444 32.587,36.964 31,36.004C29.413,35.038 28.15,33.738 27.21,32.104C26.27,30.478 25.8,28.698 25.8,26.764L25.9,0.264C25.9,0.124 25.97,0.054 26.11,0.054L32.06,0.054C32.2,0.054 32.27,0.124 32.27,0.264L32.27,26.764C32.27,27.951 32.65,28.964 33.41,29.804C34.17,30.638 35.093,31.054 36.18,31.054C37.32,31.054 38.267,30.638 39.02,29.804C39.78,28.964 40.16,27.951 40.16,26.764L40.16,0.264C40.16,0.124 40.23,0.054 40.37,0.054L46.32,0.054C46.46,0.054 46.53,0.124 46.53,0.264L46.63,26.764C46.63,28.711 46.163,30.504 45.23,32.144C44.283,33.764 43.027,35.054 41.46,36.014C39.887,36.968 38.127,37.444 36.18,37.444ZM60.19,36.934L54.19,36.934C54.05,36.934 53.98,36.848 53.98,36.674L54.08,0.264C54.08,0.124 54.15,0.054 54.29,0.054L60.76,0.054C60.9,0.054 61.02,0.124 61.12,0.264L65.96,7.244L70.77,0.264C70.877,0.124 71.007,0.054 71.16,0.054L77.66,0.054C77.813,0.054 77.89,0.124 77.89,0.264L77.99,36.674C77.99,36.848 77.923,36.934 77.79,36.934L71.78,36.934C71.647,36.934 71.58,36.848 71.58,36.674L71.52,9.634L65.96,17.704L60.45,9.634L60.4,36.674C60.4,36.848 60.33,36.934 60.19,36.934ZM95.3,36.934L85.81,36.934C85.67,36.934 85.6,36.848 85.6,36.674L85.7,0.264C85.7,0.124 85.77,0.054 85.91,0.054L96.11,0.054C98.09,0.054 99.893,0.538 101.52,1.504C103.107,2.471 104.357,3.751 105.27,5.344C106.183,6.944 106.64,8.674 106.64,10.534C106.64,12.054 106.293,13.468 105.6,14.774C104.913,16.088 104.097,17.151 103.15,17.964C104.163,18.978 104.957,20.158 105.53,21.504C106.097,22.851 106.38,24.268 106.38,25.754C106.38,27.808 105.89,29.678 104.91,31.364C103.903,33.058 102.563,34.408 100.89,35.414C99.217,36.428 97.353,36.934 95.3,36.934ZM96.11,6.344L92.07,6.344L92.07,14.674L96.11,14.674C97.33,14.674 98.32,14.238 99.08,13.364C99.84,12.498 100.22,11.554 100.22,10.534C100.22,9.414 99.817,8.434 99.01,7.594C98.197,6.761 97.23,6.344 96.11,6.344ZM95.3,21.094L92.07,21.094L92.02,30.464L95.3,30.464C96.58,30.464 97.677,29.998 98.59,29.064C99.503,28.131 99.96,27.028 99.96,25.754C99.96,24.474 99.503,23.378 98.59,22.464C97.677,21.551 96.58,21.094 95.3,21.094ZM130.7,36.934L113.57,36.934C113.43,36.934 113.36,36.848 113.36,36.674L113.42,0.314C113.42,0.141 113.507,0.054 113.68,0.054L119.58,0.054C119.747,0.054 119.83,0.141 119.83,0.314L119.78,30.414L130.7,30.414C130.873,30.414 130.96,30.498 130.96,30.664L130.96,36.674C130.96,36.848 130.873,36.934 130.7,36.934ZM154.92,36.934L137.79,36.934C137.65,36.934 137.58,36.848 137.58,36.674L137.64,0.264C137.64,0.124 137.707,0.054 137.84,0.054L154.87,0.054C155.01,0.054 155.08,0.141 155.08,0.314L155.08,6.234C155.08,6.374 155.01,6.444 154.87,6.444L144,6.444L144,14.724L154.87,14.724C155.01,14.724 155.08,14.794 155.08,14.934L155.13,20.934C155.13,21.074 155.06,21.144 154.92,21.144L144,21.144L144,30.414L154.92,30.414C155.06,30.414 155.13,30.498 155.13,30.664L155.13,36.724C155.13,36.864 155.06,36.934 154.92,36.934ZM173.27,36.934L166.85,36.934C166.697,36.934 166.61,36.848 166.59,36.674L160.33,0.264C160.297,0.124 160.347,0.054 160.48,0.054L166.44,0.054C166.573,0.054 166.66,0.124 166.7,0.264L170.09,24.194L173.58,0.264C173.613,0.124 173.717,0.054 173.89,0.054L178.68,0.054C178.813,0.054 178.9,0.124 178.94,0.264L182.38,24.194L185.82,0.264C185.853,0.124 185.94,0.054 186.08,0.054L191.98,0.054C192.153,0.054 192.223,0.124 192.19,0.264L185.87,36.674C185.857,36.741 185.807,36.801 185.72,36.854L185.61,36.934L179.19,36.934C179.09,36.934 179.007,36.848 178.94,36.674L176.22,17.654L173.53,36.674C173.51,36.848 173.423,36.934 173.27,36.934ZM215.81,36.934L198.68,36.934C198.54,36.934 198.47,36.848 198.47,36.674L198.52,0.264C198.52,0.124 198.59,0.054 198.73,0.054L215.76,0.054C215.9,0.054 215.97,0.141 215.97,0.314L215.97,6.234C215.97,6.374 215.9,6.444 215.76,6.444L204.89,6.444L204.89,14.724L215.76,14.724C215.9,14.724 215.97,14.794 215.97,14.934L216.02,20.934C216.02,21.074 215.95,21.144 215.81,21.144L204.89,21.144L204.89,30.414L215.81,30.414C215.95,30.414 216.02,30.498 216.02,30.664L216.02,36.724C216.02,36.864 215.95,36.934 215.81,36.934ZM241.25,36.934L224.11,36.934C223.977,36.934 223.91,36.848 223.91,36.674L223.96,0.264C223.96,0.124 224.03,0.054 224.17,0.054L241.19,0.054C241.33,0.054 241.4,0.141 241.4,0.314L241.4,6.234C241.4,6.374 241.33,6.444 241.19,6.444L230.33,6.444L230.33,14.724L241.19,14.724C241.33,14.724 241.4,14.794 241.4,14.934L241.45,20.934C241.45,21.074 241.383,21.144 241.25,21.144L230.33,21.144L230.33,30.414L241.25,30.414C241.383,30.414 241.45,30.498 241.45,30.664L241.45,36.724C241.45,36.864 241.383,36.934 241.25,36.934ZM259.1,36.884L249.6,36.934C249.427,36.934 249.34,36.848 249.34,36.674L249.45,0.264C249.45,0.124 249.517,0.054 249.65,0.054L259.57,0.004C261.537,-0.049 263.313,0.398 264.9,1.344C266.5,2.298 267.78,3.581 268.74,5.194C269.7,6.808 270.18,8.588 270.18,10.534L270.18,25.754C270.18,27.788 269.687,29.651 268.7,31.344C267.7,33.018 266.373,34.351 264.72,35.344C263.06,36.331 261.187,36.844 259.1,36.884ZM259.57,6.344L255.86,6.394L255.81,30.414L259.1,30.414C260.413,30.414 261.517,29.954 262.41,29.034C263.31,28.121 263.76,27.028 263.76,25.754L263.76,10.484C263.76,9.364 263.347,8.384 262.52,7.544C261.687,6.711 260.703,6.311 259.57,6.344Z" style="fill:rgb(51,30,20);fill-rule:nonzero;"/>
        </g>
    </g>
</svg>
